<svg width="24" height="24" viewBox="0 0 24 24" fill="none" xmlns="http://www.w3.org/2000/svg">
    <path
        d="M21 12.3201C21 6.8301 16.74 3.1001 12 3.1001C7.31 3.1001 3 6.7501 3 12.3801C2.4 12.7201 2 13.3601 2 14.1001V16.1001C2 17.2001 2.9 18.1001 4 18.1001H5V12.0001C5 8.1301 8.13 5.0001 12 5.0001C15.87 5.0001 19 8.1301 19 12.0001V19.1001H11V21.1001H19C20.1 21.1001 21 20.2001 21 19.1001V17.8801C21.59 17.5701 22 16.9601 22 16.2401V13.9401C22 13.2401 21.59 12.6301 21 12.3201Z"
        fill="white" />
    <path
        d="M9 14.1001C9.55228 14.1001 10 13.6524 10 13.1001C10 12.5478 9.55228 12.1001 9 12.1001C8.44772 12.1001 8 12.5478 8 13.1001C8 13.6524 8.44772 14.1001 9 14.1001Z"
        fill="white" />
    <path
        d="M15 14.1001C15.5523 14.1001 16 13.6524 16 13.1001C16 12.5478 15.5523 12.1001 15 12.1001C14.4477 12.1001 14 12.5478 14 13.1001C14 13.6524 14.4477 14.1001 15 14.1001Z"
        fill="white" />
    <path
        d="M18 11.1301C17.52 8.2801 15.04 6.1001 12.05 6.1001C9.01997 6.1001 5.75997 8.6101 6.01997 12.5501C8.48997 11.5401 10.35 9.3401 10.88 6.6601C12.19 9.2901 14.88 11.1001 18 11.1301Z"
        fill="white" />
</svg>
