<svg width="24" height="24" viewBox="0 0 24 24" fill="none" xmlns="http://www.w3.org/2000/svg">
<path d="M21 12.32C21 6.83001 16.74 3.10001 12 3.10001C7.31 3.10001 3 6.75001 3 12.38C2.4 12.72 2 13.36 2 14.1V16.1C2 17.2 2.9 18.1 4 18.1H5V12C5 8.13001 8.13 5.00001 12 5.00001C15.87 5.00001 19 8.13001 19 12V19.1H11V21.1H19C20.1 21.1 21 20.2 21 19.1V17.88C21.59 17.57 22 16.96 22 16.24V13.94C22 13.24 21.59 12.63 21 12.32Z" fill="white"/>
<path d="M9 14.1C9.55228 14.1 10 13.6523 10 13.1C10 12.5477 9.55228 12.1 9 12.1C8.44772 12.1 8 12.5477 8 13.1C8 13.6523 8.44772 14.1 9 14.1Z" fill="white"/>
<path d="M14.9998 14.1C15.552 14.1 15.9998 13.6523 15.9998 13.1C15.9998 12.5477 15.552 12.1 14.9998 12.1C14.4475 12.1 13.9998 12.5477 13.9998 13.1C13.9998 13.6523 14.4475 14.1 14.9998 14.1Z" fill="white"/>
<path d="M18 11.1301C17.52 8.28013 15.04 6.10013 12.05 6.10013C9.01997 6.10013 5.75997 8.61013 6.01997 12.5501C8.48997 11.5401 10.35 9.34013 10.88 6.66013C12.19 9.29013 14.88 11.1001 18 11.1301Z" fill="white"/>
</svg>
