<svg width="120" height="120" viewBox="0 0 120 120" fill="none" xmlns="http://www.w3.org/2000/svg">
<path fill-rule="evenodd" clip-rule="evenodd" d="M34 29.5L111 3V31.5L40 42.1039V76.5V79H39.8859C38.9535 89.1427 32.4205 97 24.5 97C15.9396 97 9 87.8218 9 76.5C9 65.1782 15.9396 56 24.5 56C28.0797 56 31.3761 57.605 34 60.3005V43V35V29.5Z" fill="#1A1B22"/>
<circle cx="71.5" cy="62.5" r="34.5" fill="#3772E7"/>
<path d="M72.1562 66.5264L86.3118 80.6935C86.671 81.0406 87.152 81.2327 87.6512 81.2284C88.1505 81.224 88.6281 81.0236 88.9811 80.6703C89.3342 80.3169 89.5344 79.8389 89.5388 79.3393C89.5431 78.8396 89.3512 78.3582 89.0043 77.9988L54.7311 43.6959C54.5554 43.5139 54.3453 43.3687 54.113 43.2689C53.8807 43.169 53.6308 43.1164 53.378 43.1142C53.1252 43.112 52.8744 43.1602 52.6404 43.256C52.4064 43.3519 52.1938 43.4934 52.015 43.6723C51.8362 43.8512 51.6948 44.064 51.5991 44.2982C51.5033 44.5324 51.4552 44.7834 51.4573 45.0364C51.4595 45.2894 51.5121 45.5395 51.6119 45.772C51.7117 46.0045 51.8567 46.2148 52.0386 46.3906L57.9358 52.2926C56.7114 53.1102 55.548 54.0592 54.4683 55.1416C53.4934 56.1307 52.6077 57.204 51.8215 58.349C51.679 58.5547 51.5783 58.7865 51.5253 59.0311C51.4723 59.2758 51.4679 59.5285 51.5125 59.7748C51.6025 60.2723 51.8862 60.7136 52.3014 61.0017C52.5069 61.1444 52.7385 61.2451 52.983 61.2982C53.2274 61.3512 53.4799 61.3556 53.7261 61.311C54.2231 61.2209 54.6641 60.9369 54.952 60.5215C55.6432 59.5229 56.4011 58.5967 57.1608 57.8344C58.2236 56.7698 59.4094 55.8358 60.6931 55.0521L62.8867 57.2494C60.2711 58.7547 58.1514 60.9914 56.7876 63.685C56.5726 64.1343 56.542 64.65 56.7023 65.1216C56.8626 65.5933 57.201 65.9833 57.6451 66.2083C58.0892 66.4333 58.6037 66.4753 59.0784 66.3253C59.553 66.1753 59.9501 65.8452 60.1847 65.4058C60.7407 64.3043 61.469 63.2987 62.3421 62.4272C63.3174 61.4496 64.4586 60.6533 65.7125 60.0755L68.3916 62.7569C66.5551 63.1709 64.8742 64.0996 63.5455 65.4344C62.6684 66.32 61.9645 67.3619 61.47 68.5064C61.2745 68.9682 61.2688 69.4884 61.4541 69.9544C61.6394 70.4203 62.0007 70.7944 62.4597 70.9955C62.9187 71.1966 63.4384 71.2085 63.9062 71.0287C64.3739 70.8489 64.752 70.4918 64.9584 70.0348C65.2764 69.3087 65.7087 68.6589 66.238 68.1291C66.9983 67.3673 67.9449 66.8183 68.9833 66.5371C70.0218 66.2559 71.1158 66.2522 72.1562 66.5264ZM69.6198 55.2255L73.8623 59.4733C75.7453 60.0213 77.459 61.0375 78.8437 62.4272C79.716 63.3147 80.4463 64.3316 81.0087 65.442C81.1195 65.6701 81.2746 65.8737 81.465 66.0409C81.6554 66.2082 81.8772 66.3358 82.1175 66.4161C82.3578 66.4965 82.6117 66.5281 82.8643 66.5091C83.1169 66.49 83.3632 66.4207 83.5887 66.3052C83.8142 66.1897 84.0145 66.0303 84.1777 65.8363C84.3409 65.6424 84.4637 65.4178 84.5391 65.1758C84.6145 64.9337 84.6409 64.679 84.6166 64.4266C84.5924 64.1742 84.5181 63.9292 84.3981 63.7059C83.6547 62.2416 82.6893 60.9013 81.5362 59.7325C79.9846 58.176 78.1191 56.9689 76.0641 56.1916C74.0092 55.4144 71.8121 55.085 69.6198 55.2255ZM63.8768 49.4779L67.0206 52.6242C70.6233 51.9438 74.3461 52.3292 77.7334 53.7331C81.1207 55.1371 84.0256 57.4987 86.0928 60.5291C86.2341 60.737 86.415 60.9148 86.6252 61.0524C86.8354 61.1899 87.0707 61.2845 87.3176 61.3307C87.5645 61.3769 87.8181 61.3737 88.0637 61.3214C88.3094 61.2691 88.5423 61.1686 88.749 61.0258C88.9557 60.8831 89.1321 60.7008 89.2682 60.4895C89.4042 60.2782 89.4971 60.042 89.5415 59.7946C89.586 59.5472 89.5811 59.2935 89.5271 59.048C89.4731 58.8025 89.3712 58.5701 89.2271 58.3642C86.4981 54.3741 82.5674 51.3603 78.0076 49.7619C73.4478 48.1635 68.4971 48.064 63.8768 49.4779ZM72.5446 70.658C72.8101 70.9236 73.0206 71.239 73.1643 71.5861C73.3079 71.9332 73.3819 72.3052 73.3819 72.6809C73.3819 73.0566 73.3079 73.4286 73.1643 73.7757C73.0206 74.1228 72.8101 74.4382 72.5446 74.7038C72.2792 74.9695 71.9641 75.1802 71.6173 75.324C71.2705 75.4677 70.8987 75.5417 70.5234 75.5417C70.148 75.5417 69.7763 75.4677 69.4295 75.324C69.0826 75.1802 68.7675 74.9695 68.5021 74.7038C67.966 74.1673 67.6648 73.4396 67.6648 72.6809C67.6648 71.9221 67.966 71.1945 68.5021 70.658C69.0382 70.1215 69.7652 69.8201 70.5234 69.8201C71.2815 69.8201 72.0086 70.1215 72.5446 70.658Z" fill="white"/>
<path fill-rule="evenodd" clip-rule="evenodd" d="M111 6L105 18.2073V79.3006C102.376 76.605 99.0797 75 95.5 75C86.9396 75 80 84.1782 80 95.5C80 106.822 86.9396 116 95.5 116C103.679 116 110.378 107.622 110.959 97H111V95.5V6Z" fill="#1A1B22"/>
</svg>
