<svg width="120" height="120" viewBox="0 0 120 120" fill="none" xmlns="http://www.w3.org/2000/svg">
<path fill-rule="evenodd" clip-rule="evenodd" d="M34 29.5L111 3V31.5L40 42.1039V76.5V79H39.8859C38.9535 89.1427 32.4205 97 24.5 97C15.9396 97 9 87.8218 9 76.5C9 65.1782 15.9396 56 24.5 56C28.0797 56 31.3761 57.605 34 60.3005V43V35V29.5Z" fill="white"/>
<circle cx="71.5" cy="62.5" r="34.5" fill="#3772E7"/>
<path d="M72.1561 66.5264L86.3117 80.6935C86.6708 81.0407 87.1518 81.2327 87.6511 81.2284C88.1504 81.2241 88.628 81.0236 88.981 80.6703C89.3341 80.317 89.5343 79.839 89.5387 79.3393C89.543 78.8396 89.3511 78.3583 89.0042 77.9988L54.731 43.696C54.5553 43.514 54.3452 43.3688 54.1129 43.2689C53.8806 43.169 53.6307 43.1165 53.3779 43.1143C53.125 43.1121 52.8743 43.1603 52.6403 43.2561C52.4063 43.3519 52.1937 43.4934 52.0149 43.6724C51.8361 43.8513 51.6947 44.0641 51.599 44.2983C51.5032 44.5325 51.455 44.7834 51.4572 45.0365C51.4594 45.2895 51.512 45.5396 51.6117 45.7721C51.7115 46.0046 51.8566 46.2149 52.0385 46.3907L57.9357 52.2927C56.7113 53.1102 55.5479 54.0592 54.4682 55.1417C53.4933 56.1307 52.6076 57.204 51.8214 58.349C51.6789 58.5547 51.5782 58.7865 51.5252 59.0312C51.4722 59.2758 51.4678 59.5285 51.5124 59.7748C51.6024 60.2723 51.8861 60.7137 52.3013 61.0018C52.5068 61.1444 52.7384 61.2451 52.9829 61.2982C53.2273 61.3513 53.4798 61.3556 53.7259 61.311C54.223 61.221 54.664 60.937 54.9519 60.5215C55.6431 59.5229 56.4009 58.5968 57.1607 57.8345C58.2235 56.7699 59.4093 55.8359 60.6929 55.0521L62.8866 57.2494C60.271 58.7548 58.1513 60.9914 56.7875 63.685C56.5725 64.1343 56.5419 64.65 56.7022 65.1217C56.8624 65.5933 57.2009 65.9834 57.645 66.2084C58.0891 66.4333 58.6036 66.4753 59.0782 66.3253C59.5529 66.1753 59.95 65.8453 60.1845 65.4059C60.7406 64.3043 61.4689 63.2988 62.342 62.4272C63.3173 61.4496 64.4585 60.6534 65.7123 60.0756L68.3915 62.7569C66.5549 63.171 64.8741 64.0997 63.5454 65.4345C62.6683 66.3201 61.9644 67.362 61.4698 68.5065C61.2744 68.9682 61.2687 69.4885 61.454 69.9544C61.6392 70.4204 62.0006 70.7944 62.4596 70.9955C62.9186 71.1966 63.4383 71.2086 63.9061 71.0287C64.3738 70.8489 64.7519 70.4918 64.9583 70.0349C65.2763 69.3088 65.7085 68.6589 66.2379 68.1291C66.9981 67.3673 67.9447 66.8184 68.9832 66.5372C70.0217 66.2559 71.1157 66.2522 72.1561 66.5264ZM69.6197 55.2255L73.8622 59.4734C75.7452 60.0214 77.4588 61.0376 78.8435 62.4272C79.7159 63.3147 80.4461 64.3317 81.0086 65.4421C81.1193 65.6701 81.2745 65.8737 81.4649 66.041C81.6553 66.2082 81.8771 66.3358 82.1174 66.4162C82.3576 66.4966 82.6115 66.5282 82.8642 66.5091C83.1168 66.4901 83.3631 66.4207 83.5886 66.3052C83.8141 66.1897 84.0143 66.0303 84.1775 65.8364C84.3407 65.6424 84.4636 65.4179 84.539 65.1758C84.6144 64.9337 84.6407 64.6791 84.6165 64.4267C84.5923 64.1743 84.518 63.9293 84.398 63.706C83.6546 62.2417 82.6891 60.9013 81.536 59.7326C79.9845 58.1761 78.1189 56.9689 76.064 56.1917C74.009 55.4145 71.812 55.0851 69.6197 55.2255ZM63.8767 49.4779L67.0205 52.6242C70.6232 51.9439 74.346 52.3292 77.7333 53.7332C81.1206 55.1371 84.0255 57.4988 86.0927 60.5291C86.234 60.737 86.4149 60.9148 86.6251 61.0524C86.8353 61.19 87.0706 61.2846 87.3175 61.3307C87.5644 61.3769 87.818 61.3737 88.0636 61.3214C88.3093 61.2691 88.5422 61.1687 88.7489 61.0259C88.9556 60.8831 89.132 60.7008 89.268 60.4895C89.404 60.2782 89.497 60.0421 89.5414 59.7947C89.5858 59.5473 89.5809 59.2935 89.527 59.048C89.473 58.8025 89.3711 58.5701 89.227 58.3643C86.498 54.3741 82.5673 51.3603 78.0075 49.7619C73.4476 48.1635 68.497 48.064 63.8767 49.4779ZM72.5445 70.658C72.81 70.9237 73.0205 71.239 73.1642 71.5861C73.3078 71.9332 73.3818 72.3052 73.3818 72.6809C73.3818 73.0566 73.3078 73.4286 73.1642 73.7757C73.0205 74.1228 72.81 74.4382 72.5445 74.7038C72.2791 74.9695 71.964 75.1802 71.6171 75.324C71.2703 75.4678 70.8986 75.5418 70.5232 75.5418C70.1479 75.5418 69.7761 75.4678 69.4293 75.324C69.0825 75.1802 68.7674 74.9695 68.502 74.7038C67.9659 74.1673 67.6647 73.4397 67.6647 72.6809C67.6647 71.9222 67.9659 71.1945 68.502 70.658C69.038 70.1215 69.7651 69.8201 70.5232 69.8201C71.2814 69.8201 72.0084 70.1215 72.5445 70.658Z" fill="white"/>
<path fill-rule="evenodd" clip-rule="evenodd" d="M111 6L105 18.2073V79.3006C102.376 76.605 99.0797 75 95.5 75C86.9396 75 80 84.1782 80 95.5C80 106.822 86.9396 116 95.5 116C103.679 116 110.378 107.622 110.959 97H111V95.5V6Z" fill="white"/>
</svg>
