<svg width="120" height="120" viewBox="0 0 120 120" fill="none" xmlns="http://www.w3.org/2000/svg">
<path fill-rule="evenodd" clip-rule="evenodd" d="M34 29.5L111 3V31.5L40 42.1039V76.5V79H39.8859C38.9535 89.1427 32.4205 97 24.5 97C15.9396 97 9 87.8218 9 76.5C9 65.1782 15.9396 56 24.5 56C28.0797 56 31.3761 57.605 34 60.3005V43V35V29.5Z" fill="#1A1B22"/>
<circle cx="71.5" cy="62.5" r="34.5" fill="#1A1B22"/>
<path d="M71.5 28C62.35 28 53.5748 31.6348 47.1048 38.1048C40.6348 44.5748 37 53.35 37 62.5C37 71.65 40.6348 80.4252 47.1048 86.8952C53.5748 93.3652 62.35 97 71.5 97C80.65 97 89.4252 93.3652 95.8952 86.8952C102.365 80.4252 106 71.65 106 62.5C106 53.35 102.365 44.5748 95.8952 38.1048C89.4252 31.6348 80.65 28 71.5 28ZM65.0312 56.0312C65.0312 57.175 64.5769 58.2719 63.7681 59.0806C62.9594 59.8894 61.8625 60.3438 60.7188 60.3438C59.575 60.3438 58.4781 59.8894 57.6694 59.0806C56.8606 58.2719 56.4062 57.175 56.4062 56.0312C56.4062 54.8875 56.8606 53.7906 57.6694 52.9819C58.4781 52.1731 59.575 51.7188 60.7188 51.7188C61.8625 51.7188 62.9594 52.1731 63.7681 52.9819C64.5769 53.7906 65.0312 54.8875 65.0312 56.0312ZM82.2812 51.7188C83.425 51.7188 84.5219 52.1731 85.3306 52.9819C86.1394 53.7906 86.5938 54.8875 86.5938 56.0312C86.5938 57.175 86.1394 58.2719 85.3306 59.0806C84.5219 59.8894 83.425 60.3438 82.2812 60.3438C81.1375 60.3438 80.0406 59.8894 79.2319 59.0806C78.4231 58.2719 77.9688 57.175 77.9688 56.0312C77.9688 54.8875 78.4231 53.7906 79.2319 52.9819C80.0406 52.1731 81.1375 51.7188 82.2812 51.7188ZM83.5879 71.125H87.025C87.5969 71.125 88.1453 71.3522 88.5497 71.7565C88.9541 72.1609 89.1813 72.7094 89.1813 73.2812C89.1813 73.8531 88.9541 74.4016 88.5497 74.806C88.1453 75.2103 87.5969 75.4375 87.025 75.4375H83.5879C78.9434 75.4375 74.4023 76.8132 70.5383 79.3878C70.303 79.5546 70.0366 79.6726 69.7548 79.7346C69.4731 79.7966 69.1818 79.8015 68.8981 79.7489C68.6145 79.6964 68.3442 79.5874 68.1035 79.4285C67.8627 79.2696 67.6562 79.064 67.4963 78.8239C67.3365 78.5838 67.2264 78.314 67.1726 78.0305C67.1189 77.7471 67.1225 77.4558 67.1834 77.1738C67.2443 76.8918 67.3611 76.6249 67.527 76.3889C67.6929 76.1529 67.9045 75.9525 68.1492 75.7997C72.7212 72.7517 78.0931 71.1251 83.5879 71.125Z" fill="#FCD452"/>
<path fill-rule="evenodd" clip-rule="evenodd" d="M111 6L105 18.2073V79.3006C102.376 76.605 99.0797 75 95.5 75C86.9396 75 80 84.1782 80 95.5C80 106.822 86.9396 116 95.5 116C103.679 116 110.378 107.622 110.959 97H111V95.5V6Z" fill="#1A1B22"/>
</svg>
