<svg width="51" height="51" viewBox="0 0 51 51" fill="none" xmlns="http://www.w3.org/2000/svg">
<rect width="51" height="51" rx="25.5" fill="#1A1B22" fill-opacity="0.25"/>
<path d="M31.125 15C28.95 15 26.8625 16.0153 25.5 17.6196C24.1375 16.0153 22.05 15 19.875 15C16.025 15 13 18.0332 13 21.8937C13 26.6316 17.25 30.4921 23.6875 36.358L25.5 38L27.3125 36.3455C33.75 30.4921 38 26.6316 38 21.8937C38 18.0332 34.975 15 31.125 15ZM25.625 34.4905L25.5 34.6158L25.375 34.4905C19.425 29.0883 15.5 25.5161 15.5 21.8937C15.5 19.3869 17.375 17.5068 19.875 17.5068C21.8 17.5068 23.675 18.7477 24.3375 20.4648H26.675C27.325 18.7477 29.2 17.5068 31.125 17.5068C33.625 17.5068 35.5 19.3869 35.5 21.8937C35.5 25.5161 31.575 29.0883 25.625 34.4905Z" fill="white"/>
</svg>
