<svg width="16" height="16" viewBox="0 0 16 16" fill="none" xmlns="http://www.w3.org/2000/svg">
<path d="M11.0057 9.80503H10.3734L10.1492 9.58891C10.9337 8.67639 11.4059 7.49171 11.4059 6.20297C11.4059 3.32933 9.07662 1 6.20297 1C3.32933 1 1 3.32933 1 6.20297C1 9.07662 3.32933 11.4059 6.20297 11.4059C7.49171 11.4059 8.67639 10.9337 9.58891 10.1492L9.80503 10.3734V11.0057L13.8073 15L15 13.8073L11.0057 9.80503ZM6.20297 9.80503C4.20983 9.80503 2.60091 8.19611 2.60091 6.20297C2.60091 4.20983 4.20983 2.60091 6.20297 2.60091C8.19611 2.60091 9.80503 4.20983 9.80503 6.20297C9.80503 8.19611 8.19611 9.80503 6.20297 9.80503Z" fill="#1A1B22"/>
</svg>
