<svg width="160" height="196" viewBox="0 0 160 196" fill="none" xmlns="http://www.w3.org/2000/svg">
    <path
        d="M0.852 167.66H3.684C4.596 167.66 5.292 167.816 5.772 168.128C6.252 168.432 6.492 168.952 6.492 169.688C6.492 170.28 6.34 170.732 6.036 171.044C5.74 171.348 5.34 171.556 4.836 171.668C5.484 171.748 5.972 171.94 6.3 172.244C6.628 172.54 6.792 172.988 6.792 173.588C6.792 174.02 6.712 174.392 6.552 174.704C6.4 175.008 6.184 175.256 5.904 175.448C5.624 175.64 5.292 175.78 4.908 175.868C4.524 175.956 4.108 176 3.66 176H0.852V167.66ZM1.956 168.476V171.308H3.6C4.128 171.308 4.556 171.184 4.884 170.936C5.22 170.688 5.388 170.292 5.388 169.748C5.388 169.5 5.348 169.296 5.268 169.136C5.196 168.968 5.088 168.836 4.944 168.74C4.8 168.644 4.62 168.576 4.404 168.536C4.196 168.496 3.956 168.476 3.684 168.476H1.956ZM1.956 172.124V175.184H3.66C3.956 175.184 4.224 175.16 4.464 175.112C4.704 175.056 4.912 174.968 5.088 174.848C5.264 174.72 5.4 174.556 5.496 174.356C5.592 174.156 5.64 173.908 5.64 173.612C5.64 173.06 5.472 172.676 5.136 172.46C4.8 172.236 4.268 172.124 3.54 172.124H1.956ZM13.2693 175.448C13.1973 175.512 13.0973 175.584 12.9693 175.664C12.8413 175.744 12.6893 175.82 12.5133 175.892C12.3373 175.956 12.1333 176.008 11.9013 176.048C11.6773 176.096 11.4253 176.12 11.1453 176.12C10.1293 176.12 9.35734 175.848 8.82934 175.304C8.30134 174.752 8.03734 173.976 8.03734 172.976C8.03734 172.488 8.10934 172.052 8.25334 171.668C8.39734 171.276 8.59734 170.944 8.85334 170.672C9.10934 170.4 9.41334 170.196 9.76534 170.06C10.1173 169.916 10.4973 169.844 10.9053 169.844C11.3373 169.844 11.7213 169.92 12.0573 170.072C12.4013 170.216 12.6813 170.432 12.8973 170.72C13.1213 171.008 13.2733 171.364 13.3533 171.788C13.4333 172.212 13.4333 172.7 13.3533 173.252H9.09334C9.16534 174.62 9.88134 175.304 11.2413 175.304C11.7053 175.304 12.1053 175.236 12.4413 175.1C12.7773 174.964 13.0533 174.82 13.2693 174.668V175.448ZM10.8813 170.576C10.4013 170.576 10.0013 170.74 9.68134 171.068C9.36134 171.388 9.16934 171.876 9.10534 172.532H12.3813C12.4293 171.86 12.3093 171.368 12.0213 171.056C11.7413 170.736 11.3613 170.576 10.8813 170.576ZM17.3511 176.12C16.9751 176.12 16.6351 176.092 16.3311 176.036C16.0271 175.988 15.7591 175.924 15.5271 175.844C15.3031 175.764 15.1111 175.676 14.9511 175.58C14.7911 175.476 14.6671 175.376 14.5791 175.28V174.38C14.6911 174.476 14.8391 174.576 15.0231 174.68C15.2151 174.784 15.4311 174.88 15.6711 174.968C15.9111 175.048 16.1751 175.116 16.4631 175.172C16.7511 175.228 17.0471 175.256 17.3511 175.256C17.9511 175.256 18.4351 175.132 18.8031 174.884C19.1711 174.628 19.3551 174.248 19.3551 173.744C19.3551 173.504 19.3111 173.308 19.2231 173.156C19.1351 173.004 19.0071 172.88 18.8391 172.784C18.6711 172.68 18.4631 172.592 18.2151 172.52C17.9671 172.44 17.6831 172.36 17.3631 172.28C17.0351 172.192 16.7071 172.096 16.3791 171.992C16.0591 171.88 15.7671 171.736 15.5031 171.56C15.2471 171.376 15.0391 171.148 14.8791 170.876C14.7191 170.604 14.6391 170.26 14.6391 169.844C14.6391 169.132 14.8911 168.572 15.3951 168.164C15.9071 167.756 16.6831 167.552 17.7231 167.552C18.3311 167.552 18.8191 167.612 19.1871 167.732C19.5551 167.844 19.8271 167.968 20.0031 168.104V169.004C19.6751 168.796 19.3191 168.648 18.9351 168.56C18.5591 168.464 18.1551 168.416 17.7231 168.416C16.9791 168.416 16.4511 168.544 16.1391 168.8C15.8351 169.048 15.6831 169.38 15.6831 169.796C15.6831 170.036 15.7351 170.236 15.8391 170.396C15.9511 170.548 16.0951 170.676 16.2711 170.78C16.4551 170.876 16.6631 170.96 16.8951 171.032C17.1271 171.096 17.3671 171.156 17.6151 171.212C17.9431 171.292 18.2751 171.384 18.6111 171.488C18.9471 171.584 19.2511 171.724 19.5231 171.908C19.8031 172.084 20.0271 172.316 20.1951 172.604C20.3711 172.884 20.4591 173.248 20.4591 173.696C20.4591 174.136 20.3711 174.512 20.1951 174.824C20.0271 175.128 19.7991 175.376 19.5111 175.568C19.2231 175.76 18.8911 175.9 18.5151 175.988C18.1391 176.076 17.7511 176.12 17.3511 176.12ZM24.8642 175.904C24.7762 175.952 24.6522 176 24.4922 176.048C24.3322 176.096 24.1362 176.12 23.9042 176.12C23.2882 176.12 22.8402 175.98 22.5602 175.7C22.2802 175.42 22.1402 175.052 22.1402 174.596V170.708H21.4202V169.964H22.1402V168.692H23.1722V169.964H24.9242V170.708H23.1722V174.464C23.1722 174.768 23.2362 174.984 23.3642 175.112C23.5002 175.232 23.7442 175.292 24.0962 175.292C24.2322 175.292 24.3642 175.272 24.4922 175.232C24.6282 175.192 24.7522 175.144 24.8642 175.088V175.904ZM31.5823 176.12C31.2063 176.12 30.8663 176.092 30.5623 176.036C30.2583 175.988 29.9903 175.924 29.7583 175.844C29.5343 175.764 29.3423 175.676 29.1823 175.58C29.0223 175.476 28.8983 175.376 28.8103 175.28V174.38C28.9223 174.476 29.0703 174.576 29.2543 174.68C29.4463 174.784 29.6623 174.88 29.9023 174.968C30.1423 175.048 30.4063 175.116 30.6943 175.172C30.9823 175.228 31.2783 175.256 31.5823 175.256C32.1823 175.256 32.6663 175.132 33.0343 174.884C33.4023 174.628 33.5863 174.248 33.5863 173.744C33.5863 173.504 33.5423 173.308 33.4543 173.156C33.3663 173.004 33.2383 172.88 33.0703 172.784C32.9023 172.68 32.6943 172.592 32.4463 172.52C32.1983 172.44 31.9143 172.36 31.5943 172.28C31.2663 172.192 30.9383 172.096 30.6103 171.992C30.2903 171.88 29.9983 171.736 29.7343 171.56C29.4783 171.376 29.2703 171.148 29.1103 170.876C28.9503 170.604 28.8703 170.26 28.8703 169.844C28.8703 169.132 29.1223 168.572 29.6263 168.164C30.1383 167.756 30.9143 167.552 31.9543 167.552C32.5623 167.552 33.0503 167.612 33.4183 167.732C33.7863 167.844 34.0583 167.968 34.2343 168.104V169.004C33.9063 168.796 33.5503 168.648 33.1663 168.56C32.7903 168.464 32.3863 168.416 31.9543 168.416C31.2103 168.416 30.6823 168.544 30.3703 168.8C30.0663 169.048 29.9143 169.38 29.9143 169.796C29.9143 170.036 29.9663 170.236 30.0703 170.396C30.1823 170.548 30.3263 170.676 30.5023 170.78C30.6863 170.876 30.8943 170.96 31.1263 171.032C31.3583 171.096 31.5983 171.156 31.8463 171.212C32.1743 171.292 32.5063 171.384 32.8423 171.488C33.1783 171.584 33.4823 171.724 33.7543 171.908C34.0343 172.084 34.2583 172.316 34.4263 172.604C34.6023 172.884 34.6903 173.248 34.6903 173.696C34.6903 174.136 34.6023 174.512 34.4263 174.824C34.2583 175.128 34.0303 175.376 33.7423 175.568C33.4543 175.76 33.1223 175.9 32.7463 175.988C32.3703 176.076 31.9823 176.12 31.5823 176.12ZM38.746 176.12C38.338 176.12 37.954 176.052 37.594 175.916C37.242 175.772 36.934 175.568 36.67 175.304C36.414 175.032 36.21 174.704 36.058 174.32C35.914 173.928 35.842 173.48 35.842 172.976C35.842 172.472 35.914 172.028 36.058 171.644C36.21 171.252 36.414 170.924 36.67 170.66C36.934 170.396 37.242 170.196 37.594 170.06C37.954 169.916 38.338 169.844 38.746 169.844C39.162 169.844 39.55 169.916 39.91 170.06C40.27 170.196 40.582 170.396 40.846 170.66C41.11 170.924 41.314 171.252 41.458 171.644C41.61 172.028 41.686 172.472 41.686 172.976C41.686 173.48 41.61 173.928 41.458 174.32C41.314 174.704 41.11 175.032 40.846 175.304C40.582 175.568 40.27 175.772 39.91 175.916C39.55 176.052 39.162 176.12 38.746 176.12ZM38.746 175.388C39.018 175.388 39.27 175.344 39.502 175.256C39.734 175.168 39.934 175.028 40.102 174.836C40.27 174.644 40.402 174.396 40.498 174.092C40.594 173.78 40.642 173.408 40.642 172.976C40.642 172.544 40.594 172.176 40.498 171.872C40.402 171.568 40.27 171.32 40.102 171.128C39.934 170.936 39.734 170.796 39.502 170.708C39.27 170.62 39.018 170.576 38.746 170.576C38.482 170.576 38.234 170.62 38.002 170.708C37.778 170.796 37.582 170.936 37.414 171.128C37.246 171.32 37.114 171.568 37.018 171.872C36.93 172.176 36.886 172.544 36.886 172.976C36.886 173.408 36.93 173.78 37.018 174.092C37.114 174.396 37.246 174.644 37.414 174.836C37.582 175.028 37.778 175.168 38.002 175.256C38.234 175.344 38.482 175.388 38.746 175.388ZM49.8125 176H48.4205L44.2325 168.992V176H43.2845V167.66H44.6765L48.8645 174.656V167.66H49.8125V176ZM57.0357 175.664C57.0357 176.056 56.9797 176.412 56.8677 176.732C56.7557 177.052 56.5757 177.324 56.3277 177.548C56.0877 177.78 55.7757 177.956 55.3917 178.076C55.0077 178.204 54.5437 178.268 53.9997 178.268C53.6317 178.268 53.3157 178.24 53.0517 178.184C52.7957 178.128 52.5837 178.064 52.4157 177.992C52.2157 177.912 52.0517 177.82 51.9237 177.716V176.936C52.0517 177.032 52.2157 177.12 52.4157 177.2C52.5837 177.264 52.7997 177.32 53.0637 177.368C53.3277 177.424 53.6437 177.452 54.0117 177.452C54.7557 177.452 55.2757 177.3 55.5717 176.996C55.8677 176.7 56.0157 176.26 56.0157 175.676V174.572C55.8317 174.932 55.5797 175.22 55.2597 175.436C54.9477 175.652 54.5517 175.76 54.0717 175.76C53.7117 175.76 53.3717 175.7 53.0517 175.58C52.7317 175.452 52.4477 175.264 52.1997 175.016C51.9597 174.768 51.7677 174.46 51.6237 174.092C51.4797 173.724 51.4077 173.296 51.4077 172.808C51.4077 172.312 51.4797 171.88 51.6237 171.512C51.7677 171.136 51.9597 170.828 52.1997 170.588C52.4477 170.34 52.7357 170.156 53.0637 170.036C53.3917 169.908 53.7357 169.844 54.0957 169.844C54.5757 169.844 54.9797 169.952 55.3077 170.168C55.6437 170.384 55.9037 170.68 56.0877 171.056L56.0997 170.924C56.0997 170.852 56.0997 170.772 56.0997 170.684C56.1077 170.596 56.1157 170.508 56.1237 170.42C56.1317 170.332 56.1397 170.248 56.1477 170.168C56.1557 170.088 56.1637 170.02 56.1717 169.964H57.0957C57.0797 170.068 57.0637 170.224 57.0477 170.432C57.0397 170.632 57.0357 170.796 57.0357 170.924V175.664ZM54.2637 175.028C54.7677 175.028 55.1877 174.848 55.5237 174.488C55.8597 174.12 56.0277 173.56 56.0277 172.808C56.0277 172.056 55.8597 171.496 55.5237 171.128C55.1877 170.76 54.7637 170.576 54.2517 170.576C53.9957 170.576 53.7557 170.624 53.5317 170.72C53.3077 170.808 53.1157 170.948 52.9557 171.14C52.7957 171.324 52.6677 171.556 52.5717 171.836C52.4837 172.116 52.4397 172.44 52.4397 172.808C52.4397 173.184 52.4837 173.512 52.5717 173.792C52.6677 174.064 52.7957 174.292 52.9557 174.476C53.1237 174.66 53.3157 174.8 53.5317 174.896C53.7557 174.984 53.9997 175.028 54.2637 175.028ZM61.7111 167.66H66.8831V168.476H62.8151V171.26H66.2711V172.076H62.8151V175.184H66.9431V176H61.7111V167.66ZM71.493 176H69.921L67.857 169.964H68.925L70.785 175.508L72.621 169.964H73.569L71.493 176ZM74.8041 167.66H79.9761V168.476H75.9081V171.26H79.3641V172.076H75.9081V175.184H80.0361V176H74.8041V167.66ZM84.7166 170.9C84.2846 170.94 83.8886 171.06 83.5286 171.26C83.1766 171.452 82.9166 171.752 82.7486 172.16V176H81.7286V169.964H82.6286L82.7246 171.272H82.7486C82.9166 170.912 83.1606 170.6 83.4806 170.336C83.8086 170.072 84.2206 169.908 84.7166 169.844V170.9ZM87.3367 167.66L87.1567 173.78H86.4727L86.3047 167.66H87.3367ZM86.8087 176.072C86.6087 176.072 86.4447 176.008 86.3167 175.88C86.1887 175.744 86.1247 175.584 86.1247 175.4C86.1247 175.208 86.1887 175.048 86.3167 174.92C86.4447 174.784 86.6087 174.716 86.8087 174.716C87.0087 174.716 87.1727 174.784 87.3007 174.92C87.4287 175.048 87.4927 175.208 87.4927 175.4C87.4927 175.584 87.4287 175.744 87.3007 175.88C87.1727 176.008 87.0087 176.072 86.8087 176.072Z"
        fill="white" />
    <path
        d="M3.276 192H2.208V184.908L0.444 186.624V185.568L2.4 183.66H3.276V192ZM10.6474 186.684V192H9.61541V186.684H7.71941V185.964H12.5794V186.684H10.6474ZM16.9677 192.12C16.5117 192.12 16.1117 192.012 15.7677 191.796C15.4317 191.58 15.1597 191.28 14.9517 190.896V194.244H13.9317V185.964H14.8317L14.9277 187.152C15.1277 186.752 15.3997 186.436 15.7437 186.204C16.0877 185.964 16.5117 185.844 17.0157 185.844C17.3677 185.844 17.7037 185.908 18.0237 186.036C18.3437 186.164 18.6237 186.356 18.8637 186.612C19.1117 186.868 19.3077 187.196 19.4517 187.596C19.5957 187.988 19.6677 188.448 19.6677 188.976C19.6677 189.504 19.5917 189.968 19.4397 190.368C19.2957 190.76 19.0997 191.088 18.8517 191.352C18.6037 191.608 18.3157 191.8 17.9877 191.928C17.6677 192.056 17.3277 192.12 16.9677 192.12ZM16.8117 191.388C17.3477 191.388 17.7797 191.2 18.1077 190.824C18.4437 190.44 18.6117 189.824 18.6117 188.976C18.6117 188.152 18.4437 187.548 18.1077 187.164C17.7797 186.772 17.3477 186.576 16.8117 186.576C16.5477 186.576 16.2997 186.624 16.0677 186.72C15.8437 186.808 15.6477 186.952 15.4797 187.152C15.3117 187.344 15.1797 187.592 15.0837 187.896C14.9877 188.2 14.9397 188.56 14.9397 188.976C14.9397 189.408 14.9877 189.776 15.0837 190.08C15.1797 190.384 15.3117 190.632 15.4797 190.824C15.6477 191.016 15.8437 191.16 16.0677 191.256C16.2997 191.344 16.5477 191.388 16.8117 191.388ZM26.024 191.448C25.952 191.512 25.852 191.584 25.724 191.664C25.596 191.744 25.444 191.82 25.268 191.892C25.092 191.956 24.888 192.008 24.656 192.048C24.432 192.096 24.18 192.12 23.9 192.12C22.884 192.12 22.112 191.848 21.584 191.304C21.056 190.752 20.792 189.976 20.792 188.976C20.792 188.488 20.864 188.052 21.008 187.668C21.152 187.276 21.352 186.944 21.608 186.672C21.864 186.4 22.168 186.196 22.52 186.06C22.872 185.916 23.252 185.844 23.66 185.844C24.092 185.844 24.476 185.92 24.812 186.072C25.156 186.216 25.436 186.432 25.652 186.72C25.876 187.008 26.028 187.364 26.108 187.788C26.188 188.212 26.188 188.7 26.108 189.252H21.848C21.92 190.62 22.636 191.304 23.996 191.304C24.46 191.304 24.86 191.236 25.196 191.1C25.532 190.964 25.808 190.82 26.024 190.668V191.448ZM23.636 186.576C23.156 186.576 22.756 186.74 22.436 187.068C22.116 187.388 21.924 187.876 21.86 188.532H25.136C25.184 187.86 25.064 187.368 24.776 187.056C24.496 186.736 24.116 186.576 23.636 186.576ZM28.6658 185.964V192H27.6458V185.964H28.6658ZM29.9738 188.88L32.5778 192H31.3298L28.8338 189.024L31.4618 185.964H32.5298L29.9738 188.88Z"
        fill="white" />
    <path
        d="M38.022 50.2842C42.0308 46.2169 46.0396 42.5506 47.815 43.2953C50.6784 44.441 47.815 49.1958 46.0969 52.0028C44.6652 54.4088 29.7181 74.287 29.7181 88.1502C29.7181 95.4828 32.467 101.555 37.3921 105.221C41.6872 108.429 47.3568 109.403 52.511 107.857C58.6388 106.081 63.6784 99.8365 70.0352 91.9883C76.9648 83.4527 86.2423 72.282 93.4009 72.282C102.736 72.282 102.85 78.0679 103.48 82.5362C81.8326 86.2025 72.6696 103.56 72.6696 113.299C72.6696 123.037 80.9163 131 91.0529 131C100.388 131 115.621 123.381 117.912 96.0556H132V81.7342H117.855C116.996 72.282 111.612 57.6741 94.7753 57.6741C81.8899 57.6741 70.837 68.6157 66.4846 73.9433C63.163 78.1251 54.6872 88.1502 53.37 89.525C51.9383 91.2436 49.4758 94.337 47.0132 94.337C44.4361 94.337 42.8899 89.5823 44.9515 83.3382C46.9559 77.094 52.9692 66.9544 55.5463 63.1735C60.0132 56.6429 62.9912 52.1746 62.9912 44.3838C62.9912 31.9527 53.5991 28 48.6167 28C41.0573 28 34.4714 33.7286 33.0396 35.1607C30.978 37.223 29.2599 38.9416 28 40.4883L38.022 50.2842ZM91.2247 117.08C89.4493 117.08 86.9868 115.59 86.9868 112.955C86.9868 109.518 91.1674 100.352 103.423 97.1441C101.705 112.554 95.2335 117.08 91.2247 117.08Z"
        fill="#AEAFB4" />
</svg>
