<svg width="24" height="24" viewBox="0 0 24 24" fill="none" xmlns="http://www.w3.org/2000/svg">
<path d="M16.5792 14.9497H15.721L15.4168 14.6564C16.4814 13.418 17.1224 11.8102 17.1224 10.0612C17.1224 6.16124 13.9611 3 10.0612 3C6.16124 3 3 6.16124 3 10.0612C3 13.9611 6.16124 17.1224 10.0612 17.1224C11.8102 17.1224 13.418 16.4814 14.6564 15.4168L14.9497 15.721V16.5792L20.3814 22L22 20.3814L16.5792 14.9497ZM10.0612 14.9497C7.3562 14.9497 5.17267 12.7662 5.17267 10.0612C5.17267 7.3562 7.3562 5.17267 10.0612 5.17267C12.7662 5.17267 14.9497 7.3562 14.9497 10.0612C14.9497 12.7662 12.7662 14.9497 10.0612 14.9497Z" fill="#1A1B22"/>
</svg>
