<svg width="24" height="24" viewBox="0 0 24 24" fill="none" xmlns="http://www.w3.org/2000/svg">
<path d="M17.3333 15.7229C16.6578 15.7229 16.0533 15.994 15.5911 16.4187L9.25333 12.6687C9.29778 12.4608 9.33333 12.253 9.33333 12.0361C9.33333 11.8193 9.29778 11.6114 9.25333 11.4036L15.52 7.68976C16 8.14157 16.6311 8.42169 17.3333 8.42169C18.8089 8.42169 20 7.21084 20 5.71084C20 4.21084 18.8089 3 17.3333 3C15.8578 3 14.6667 4.21084 14.6667 5.71084C14.6667 5.92771 14.7022 6.13554 14.7467 6.34337L8.48 10.0572C8 9.60542 7.36889 9.3253 6.66667 9.3253C5.19111 9.3253 4 10.5361 4 12.0361C4 13.5361 5.19111 14.747 6.66667 14.747C7.36889 14.747 8 14.4669 8.48 14.0151L14.8089 17.7741C14.7644 17.9639 14.7378 18.1627 14.7378 18.3614C14.7378 19.8163 15.9022 21 17.3333 21C18.7644 21 19.9289 19.8163 19.9289 18.3614C19.9289 16.9066 18.7644 15.7229 17.3333 15.7229Z" fill="white"/>
</svg>
