<svg width="35" height="35" viewBox="0 0 35 35" fill="none" xmlns="http://www.w3.org/2000/svg">
<path d="M3.6062 7.91875C4.9187 6.5875 6.2312 5.3875 6.81245 5.63125C7.74995 6.00625 6.81245 7.5625 6.24995 8.48125C5.7812 9.26875 0.887452 15.775 0.887452 20.3125C0.887452 22.7125 1.78745 24.7 3.39995 25.9C4.8062 26.95 6.66245 27.2687 8.34995 26.7625C10.3562 26.1812 12.0062 24.1375 14.0875 21.5687C16.3562 18.775 19.3937 15.1187 21.7375 15.1187C24.7937 15.1187 24.8312 17.0125 25.0375 18.475C17.95 19.675 14.95 25.3562 14.95 28.5437C14.95 31.7312 17.65 34.3375 20.9687 34.3375C24.025 34.3375 29.0125 31.8438 29.7625 22.9H34.375V18.2125H29.7437C29.4625 15.1187 27.7 10.3375 22.1875 10.3375C17.9687 10.3375 14.35 13.9187 12.925 15.6625C11.8375 17.0312 9.06245 20.3125 8.6312 20.7625C8.16245 21.325 7.3562 22.3375 6.54995 22.3375C5.7062 22.3375 5.19995 20.7812 5.87495 18.7375C6.5312 16.6937 8.49995 13.375 9.3437 12.1375C10.8062 10 11.7812 8.5375 11.7812 5.9875C11.7812 1.91875 8.7062 0.625 7.07495 0.625C4.59995 0.625 2.4437 2.5 1.97495 2.96875C1.29995 3.64375 0.737451 4.20625 0.324951 4.7125L3.6062 7.91875ZM21.025 29.7812C20.4437 29.7812 19.6375 29.2937 19.6375 28.4312C19.6375 27.3062 21.0062 24.3062 25.0187 23.2562C24.4562 28.3 22.3375 29.7812 21.025 29.7812Z" fill="#AEAFB4"/>
</svg>
