<svg width="104" height="103" viewBox="0 0 104 103" fill="none" xmlns="http://www.w3.org/2000/svg">
    <path
        d="M10.022 22.2842C14.0308 18.2169 18.0396 14.5506 19.815 15.2953C22.6784 16.441 19.815 21.1958 18.0969 24.0028C16.6652 26.4088 1.71806 46.287 1.71806 60.1502C1.71806 67.4828 4.46696 73.5551 9.39207 77.2214C13.6872 80.4294 19.3568 81.4032 24.511 79.8565C30.6388 78.0807 35.6784 71.8365 42.0352 63.9883C48.9648 55.4527 58.2423 44.282 65.4009 44.282C74.7357 44.282 74.8502 50.0679 75.4802 54.5362C53.8326 58.2025 44.6696 75.5601 44.6696 85.2987C44.6696 95.0373 52.9163 103 63.0529 103C72.3877 103 87.6212 95.381 89.9119 68.0556H104V53.7342H89.8546C88.9956 44.282 83.6123 29.6741 66.7753 29.6741C53.8899 29.6741 42.837 40.6157 38.4846 45.9433C35.163 50.1251 26.6872 60.1502 25.37 61.525C23.9383 63.2436 21.4758 66.337 19.0132 66.337C16.4361 66.337 14.8899 61.5823 16.9515 55.3382C18.9559 49.094 24.9692 38.9544 27.5463 35.1735C32.0132 28.6429 34.9912 24.1746 34.9912 16.3838C34.9912 3.95272 25.5991 0 20.6167 0C13.0573 0 6.47137 5.72859 5.03965 7.16073C2.97797 9.22303 1.25991 10.9416 0 12.4883L10.022 22.2842ZM63.2247 89.0795C61.4493 89.0795 58.9868 87.5901 58.9868 84.9549C58.9868 81.5178 63.1674 72.3521 75.4229 69.1441C73.7048 84.5539 67.2335 89.0795 63.2247 89.0795Z"
        fill="#AEAFB4" />
</svg>
