<svg width="51" height="51" viewBox="0 0 51 51" fill="none" xmlns="http://www.w3.org/2000/svg">
<rect width="51" height="51" rx="25.5" fill="#1A1B22" fill-opacity="0.25"/>
<path d="M34.7 14H20.9C19.635 14 18.6 15.035 18.6 16.3V30.1C18.6 31.365 19.635 32.4 20.9 32.4H34.7C35.965 32.4 37 31.365 37 30.1V16.3C37 15.035 35.965 14 34.7 14ZM26.0405 27.8L22.05 23.775L23.66 22.1535L26.0405 24.5455L31.94 18.6L33.55 20.2215L26.0405 27.8ZM16.3 18.6H14V34.7C14 35.965 15.035 37 16.3 37H32.4V34.7H16.3V18.6Z" fill="white"/>
</svg>
